<svg width="236" height="255" viewBox="0 0 236 255" fill="none" xmlns="http://www.w3.org/2000/svg">
<g clip-path="url(#clip0_2_8)">
<path d="M169.466 182.964L153.372 200.362C152.197 201.633 150.886 202.761 149.48 203.712L115.82 226.476C107.234 232.283 96.1411 230.947 89.0741 223.305L41.7886 172.169C36.3073 166.241 34.2209 157.507 36.3441 149.374L46.2622 111.376C49.7443 98.0343 60.3854 93.2074 73.1461 94.6L93.6442 44.7113C99.0021 31.6687 113.032 25.5983 125.101 31.1777C137.224 36.782 142.74 52.0607 137.323 65.2483L123.491 89.4932L142.998 63.8532C152.378 53.7096 167.551 53.6139 176.822 63.6394C186.093 73.6651 186.004 90.0739 176.624 100.217L156.48 122.003C163.357 127.614 166.273 136.916 164.448 145.705C177.3 152.982 179.8 171.788 169.466 182.964ZM158.429 171.028C164.213 164.774 155.798 155.693 150.024 161.938C147.992 164.135 144.699 164.135 142.668 161.938L141.092 160.234C139.06 158.037 139.06 154.475 141.092 152.279L147.528 145.318C153.311 139.064 144.897 129.983 139.122 136.228L132.686 143.188C130.654 145.385 127.361 145.385 125.33 143.188L123.754 141.484C121.722 139.287 121.722 135.726 123.754 133.529L165.591 88.2853C173.505 79.7263 161.934 67.2405 154.032 75.7858L112.195 121.03C110.164 123.226 106.871 123.226 104.84 121.03L102.166 118.138C101.422 117.334 100.922 116.306 100.73 115.188C100.538 114.07 100.663 112.916 101.09 111.877L123.06 58.3941C127.522 47.5326 112.52 40.3177 107.902 51.559L84.3495 108.894C83.9047 109.977 83.1552 110.88 82.2079 111.475C81.2605 112.07 80.1636 112.326 79.0737 112.207L67.9453 110.993C64.9691 110.669 62.1037 112.804 61.2798 115.96L51.3617 153.959C50.7721 156.219 51.3316 158.624 52.8228 160.237L100.108 211.372C102.06 213.483 105.119 213.811 107.546 212.169L141.206 189.405C141.616 189.127 141.996 188.8 142.338 188.43L158.43 171.028L158.429 171.028Z" fill="#BD4242"/>
</g>
<defs>
<clipPath id="clip0_2_8">
<rect width="173.356" height="173.356" fill="white" transform="matrix(-0.678924 0.734209 0.678924 0.734209 117.975 0)"/>
</clipPath>
</defs>
</svg>
